<?xml version="1.0" encoding="utf-8"?>
<!-- Generator: Adobe Illustrator 19.2.1, SVG Export Plug-In . SVG Version: 6.00 Build 0)  -->
<!DOCTYPE svg PUBLIC "-//W3C//DTD SVG 1.1//EN" "http://www.w3.org/Graphics/SVG/1.1/DTD/svg11.dtd">
<svg version="1.1" id="Layer_1" xmlns="http://www.w3.org/2000/svg" xmlns:xlink="http://www.w3.org/1999/xlink" x="0px" y="0px"
	 viewBox="0 0 240 20.74193" enable-background="new 0 0 240 20.74193" xml:space="preserve">
<g>
	<g>
		<g>
			<path fill="#FF4422" d="M35.92528,2.5918c-1.39422-1.39422-3.28513-2.17746-5.25682-2.17746h-10.8439V20.2389h7.43421V7.84855
				h2.38323c0.65726,0,1.28924,0.26106,1.75396,0.72577l2.56776,2.56609c0.46479,0.46471,0.72924,1.09505,0.72924,1.7523v7.34618
				h7.43421v-8.37263c0-1.97162-0.78665-3.86253-2.18079-5.25675L35.92528,2.5918z"/>
			<path fill="#FF4422" d="M74.34209,0.41434v7.34618c0,0.65718-0.26446,1.28751-0.72925,1.75222l-2.56957,2.5661
				c-0.46471,0.46479-1.09497,0.72584-1.75223,0.72584h-2.38996h-1.18111c0.766-1.18995,1.18791-2.58115,1.18791-4.01779V0.41434
				h-7.43421v7.34618c0,0.65718-0.26446,1.28751-0.72925,1.75222l-2.56958,2.5661c-0.46471,0.46479-1.09497,0.72584-1.75222,0.72584
				h-2.38316V0.41434h-7.43421V20.2389h10.8439c1.97169,0,3.86435-0.78325,5.25849-2.17746l2.48314-2.48208v4.65954h7.1268
				c1.97169,0,3.86434-0.78325,5.25848-2.17746l4.01945-4.01779c1.39414-1.39415,2.18079-3.28506,2.18079-5.25675V0.41434H74.34209z
				"/>
			<polygon fill="#FF4422" points="0,7.84855 4.95614,7.84855 4.95614,20.23889 12.39034,20.23889 12.39034,7.84855
				17.34648,7.84855 17.34648,0.41434 0,0.41434 			"/>
		</g>
		<g>
			<path fill="#FF4422" d="M108.69482,12.81205c-1.12455,4.675-5.17805,7.81156-10.03075,7.81156
				c-5.82902,0-10.44479-4.5863-10.44479-10.35623c0-5.74017,4.55654-10.23777,10.38556-10.23777
				c3.22541,0,6.06595,1.30195,8.04835,3.69868c1.12425,1.39065,1.80499,2.75169,2.04163,4.20158h-5.29651
				c-0.79891-2.13048-2.63338-3.4619-4.82294-3.4619c-2.98847,0-5.2965,2.51505-5.2965,5.76979
				c0,3.34358,2.3375,5.91787,5.32597,5.91787c2.10087,0,3.69868-1.1244,4.79347-3.34358H108.69482z"/>
			<path fill="#FF4422" d="M111.79973,7.07174c1.36118-1.39065,3.46205-2.21918,5.68108-2.21918
				c2.63338,0,4.70477,0.94685,6.24335,2.81107c1.15401,1.44989,1.80499,3.25473,1.80499,5.11881
				c0,2.16009-0.85815,4.2312-2.33779,5.74031c-1.4496,1.47936-3.40253,2.21918-5.74003,2.21918
				c-4.64553,0-7.98911-3.34358-7.98911-7.98911C109.46223,10.6521,110.32037,8.55124,111.79973,7.07174z M117.51028,16.56982
				c2.01216,0,3.55075-1.62729,3.55075-3.78739c0-2.07125-1.59782-3.75777-3.55075-3.75777
				c-1.9824,0-3.58022,1.65705-3.58022,3.72816C113.93007,14.94253,115.46866,16.56982,117.51028,16.56982z"/>
			<path fill="#FF4422" d="M127.21424,5.3556h4.20173V6.9238c1.09477-1.50897,2.21904-2.07125,4.08325-2.07125
				c1.56836,0,3.01823,0.53266,4.02403,1.50912c1.12454,1.06517,1.47964,2.21918,1.47964,4.5863v9.29092h-4.46812v-8.10743
				c0-1.12425-0.11818-1.71614-0.4438-2.18957c-0.3551-0.56213-1.09479-0.91723-1.89369-0.91723
				c-0.85815,0-1.65706,0.38472-2.10088,1.0357c-0.32533,0.47328-0.41403,0.82838-0.41403,1.86408v8.31446h-4.46813V5.3556z"/>
			<path fill="#FF4422" d="M143.54613,8.72879h-1.65706V5.3556h1.65706V4.5863c0-1.47936,0.50304-2.69261,1.39066-3.43228
				C145.94286,0.32549,147.18558,0,149.2272,0h0.65099v3.3732h-0.50305c-0.85814,0-1.36118,0.53251-1.36118,1.39065V5.3556h1.86423
				v3.3732h-1.86423v11.5101h-4.46783V8.72879z"/>
			<path fill="#FF4422" d="M165.35251,15.59336c-1.39066,3.22526-4.08327,5.14857-7.27892,5.14857
				c-4.29042,0-7.78194-3.52113-7.78194-7.90027c0-4.43836,3.43228-7.98911,7.7227-7.98911
				c4.46785,0,7.84119,3.49152,7.84119,8.13705c0,0.50304-0.02977,0.73968-0.11847,1.2131h-11.12552
				c0.20717,1.65705,1.50911,2.78146,3.25487,2.78146c1.12427,0,1.80499-0.2664,2.72208-1.18363l0.20717-0.20717H165.35251z
				 M161.41718,11.21423c-0.29587-1.53859-1.65704-2.57429-3.37334-2.57429c-1.716,0-2.95872,0.94685-3.34358,2.57429H161.41718z"/>
			<path fill="#FF4422" d="M167.42245,5.3556h4.20172V6.9238c0.50304-0.88761,0.88762-1.27233,1.59782-1.62729
				c0.56227-0.2664,1.44989-0.44395,2.01216-0.44395h0.11816v4.46798c-2.57414,0.05923-3.52098,0.79891-3.52098,2.69261v8.22575
				h-4.40889V5.3556z"/>
			<path fill="#FF4422" d="M190.67871,15.59336c-1.39066,3.22526-4.08325,5.14857-7.2789,5.14857
				c-4.29044,0-7.78195-3.52113-7.78195-7.90027c0-4.43836,3.43228-7.98911,7.72272-7.98911
				c4.46783,0,7.84117,3.49152,7.84117,8.13705c0,0.50304-0.02975,0.73968-0.11845,1.2131h-11.12553
				c0.20717,1.65705,1.50912,2.78146,3.25488,2.78146c1.12425,0,1.80499-0.2664,2.72208-1.18363l0.20717-0.20717H190.67871z
				 M186.74339,11.21423c-0.29587-1.53859-1.65706-2.57429-3.37335-2.57429c-1.71599,0-2.95871,0.94685-3.34329,2.57429H186.74339z"
				/>
			<path fill="#FF4422" d="M192.74866,5.3556h4.20172V6.9238c1.09479-1.50897,2.21904-2.07125,4.08327-2.07125
				c1.56834,0,3.01823,0.53266,4.02403,1.50912c1.12454,1.06517,1.47964,2.21918,1.47964,4.5863v9.29092h-4.46812v-8.10743
				c0-1.12425-0.11818-1.71614-0.44382-2.18957c-0.3551-0.56213-1.09477-0.91723-1.89369-0.91723
				c-0.85814,0-1.65706,0.38472-2.10086,1.0357c-0.32535,0.47328-0.41405,0.82838-0.41405,1.86408v8.31446h-4.46812V5.3556z"/>
			<path fill="#FF4422" d="M223.87529,14.58743c-0.88791,3.63945-4.0538,6.15451-7.81171,6.15451
				c-4.46783,0-7.95935-3.52113-7.95935-7.9595c0-4.46784,3.43228-7.92988,7.84117-7.92988
				c3.90556,0,7.10121,2.54467,7.90012,6.24335h-4.52707c-0.5325-1.30195-1.74576-2.07125-3.22511-2.07125
				c-2.04163,0-3.52127,1.62744-3.52127,3.817c0,2.15995,1.47964,3.72816,3.52127,3.72816c1.42012,0,2.36697-0.59174,3.28435-1.9824
				H223.87529z"/>
			<path fill="#FF4422" d="M239.49696,15.59336c-1.39066,3.22526-4.08327,5.14857-7.27892,5.14857
				c-4.29042,0-7.78194-3.52113-7.78194-7.90027c0-4.43836,3.43228-7.98911,7.72272-7.98911
				c4.46783,0,7.84117,3.49152,7.84117,8.13705c0,0.50304-0.02975,0.73968-0.11847,1.2131h-11.12552
				c0.20717,1.65705,1.50911,2.78146,3.25488,2.78146c1.12425,0,1.80498-0.2664,2.72208-1.18363l0.20717-0.20717H239.49696z
				 M235.56163,11.21423c-0.29587-1.53859-1.65704-2.57429-3.37334-2.57429c-1.716,0-2.95871,0.94685-3.34329,2.57429H235.56163z"/>
		</g>
	</g>
</g>
</svg>
